#!OML:ASF E:\motion texture\Top Level 1\Subject 1\Session 1\male.ASF
:FULLY-SPECIFIED
:DEGREES
244
root 21.5278 17.664 4.32984 50.0039 -77.107 -41.8607
lowerback 1.51458 -0.533335 3.65001
upperback 0.758817 -0.673042 0.936771
thorax -0.101255 -0.334797 -1.0742
lowerneck -16.4186 -4.07079 -9.52799
upperneck 7.77599 -4.84388 11.5539
head 5.55218 -1.87223 4.76515
rclavicle 2.94201e-014 4.77083e-015
rhumerus 14.0263 24.2531 -88.0612
rradius 70.8179
rwrist 22.3997
rhand -28.4558 -29.1926
rfingers 7.12502
rthumb -1.8261 -59.1646
lclavicle 2.94201e-014 4.77083e-015
lhumerus 15.2156 -25.6133 99.1343
lradius 65.3201
lwrist 35.6372
lhand -8.45948 37.9173
lfingers 7.12502
lthumb 17.4667 67.1525
rfemur -13.6538 1.31455 33.506
rtibia 26.6842
rfoot -14.1791 -12.9607
rtoes 4.46601
lfemur -36.1228 2.40371 -7.85456
ltibia 35.1819
lfoot -7.47489 4.90305
ltoes -15.9043
245
root 21.3689 17.6519 4.34753 50.9294 -77.1809 -42.6772
lowerback 1.41896 -0.453081 3.76122
upperback 0.759451 -0.569995 0.98225
thorax -0.0428227 -0.282476 -1.09232
lowerneck -16.3961 -4.07279 -9.49974
upperneck 7.76007 -4.84846 11.5181
head 5.54219 -1.87677 4.74823
rclavicle 1.63003e-014 1.59028e-015
rhumerus 12.9164 24.4888 -88.5184
rradius 71.0533
rwrist 21.6216
rhand -28.2283 -29.5735
rfingers 7.12502
rthumb -1.60637 -59.5472
lclavicle 1.63003e-014 1.59028e-015
lhumerus 13.795 -25.6149 99.1997
lradius 65.951
lwrist 35.9352
lhand -8.15357 37.8244
lfingers 7.12502
lthumb 17.7611 67.0333
rfemur -13.1727 1.30604 33.646
rtibia 26.6723
rfoot -14.4663 -12.9513
rtoes 3.82847
lfemur -36.384 2.47661 -7.76616
ltibia 33.6051
lfoot -7.39568 5.22301
ltoes -15.7982
246
root 21.2092 17.6387 4.36566 51.8759 -77.2529 -43.5174
lowerback 1.32678 -0.368023 3.86928
upperback 0.760886 -0.460751 1.02561
thorax 0.0150452 -0.227022 -1.11058
lowerneck -16.3709 -4.07782 -9.4732
upperneck 7.74293 -4.85751 11.4868
head 5.53207 -1.88335 4.73261
rclavicle 1.39149e-015 1.66979e-014
rhumerus 11.8164 24.699 -88.9853
rradius 71.2887
rwrist 20.7605
rhand -27.9664 -29.9779
rfingers 7.12502
rthumb -1.35343 -59.9534
lclavicle 1.39149e-015 1.66979e-014
lhumerus 12.3618 -25.62 99.259
lradius 66.5838
lwrist 36.2165
lhand -7.8502 37.7311
lfingers 7.12502
lthumb 18.053 66.9133
rfemur -12.7037 1.29047 33.7786
rtibia 26.6933
rfoot -14.7516 -12.923
rtoes 3.17984
lfemur -36.6202 2.52371 -7.65681
ltibia 32.0636
lfoot -7.29628 5.53265
ltoes -15.7055
247
root 21.0487 17.6245 4.38424 52.8373 -77.3225 -44.3751
lowerback 1.23797 -0.279223 3.97344
upperback 0.762676 -0.346692 1.06723
thorax 0.0718771 -0.169141 -1.12816
lowerneck -16.3395 -4.08594 -9.45117
upperneck 7.72308 -4.87087 11.4617
head 5.52085 -1.89196 4.71935
rclavicle 2.18663e-015 -2.3059e-014
rhumerus 10.725 24.8845 -89.462
rradius 71.5247
rwrist 19.8163
rhand -27.6388 -30.3914
rfingers 7.12502
rthumb -1.03704 -60.3686
lclavicle 2.18663e-015 -2.3059e-014
lhumerus 10.9153 -25.6272 99.3136
lradius 67.2177
lwrist 36.4772
lhand -7.54997 37.6381
lfingers 7.12502
lthumb 18.3418 66.7934
rfemur -12.2483 1.26571 33.9025
rtibia 26.7491
rfoot -15.0292 -12.8739
rtoes 2.50141
lfemur -36.8336 2.54519 -7.52723
ltibia 30.5678
lfoot -7.16439 5.82981
ltoes -15.6084
248
root 20.8872 17.6093 4.40324 53.8012 -77.391 -45.2376
lowerback 1.15263 -0.186143 4.07098
upperback 0.764642 -0.227047 1.1049
thorax 0.127486 -0.108447 -1.1458
lowerneck -16.3037 -4.09701 -9.43037
upperneck 7.70232 -4.88903 11.4425
head 5.50936 -1.90272 4.70771
rclavicle -3.85642e-014 0
rhumerus 9.64096 25.0414 -89.9497
rradius 71.7579
rwrist 18.7912
rhand -27.2516 -30.8174
rfingers 7.12502
rthumb -0.663047 -60.7961
lclavicle -3.85642e-014 0
lhumerus 9.45482 -25.6396 99.3652
lradius 67.8525
lwrist 36.7186
lhand -7.25153 37.5465
lfingers 7.12502
lthumb 18.6289 66.6745
rfemur -11.8073 1.23243 34.0141
rtibia 26.8408
rfoot -15.2969 -12.8049
rtoes 1.79495
lfemur -37.0272 2.53921 -7.38026
ltibia 29.1291
lfoot -6.99974 6.12867
ltoes -15.5365
249
root 20.7248 17.5933 4.42264 54.7526 -77.46 -46.0899
lowerback 1.07136 -0.089185 4.15772
upperback 0.767253 -0.102309 1.13829
thorax 0.181979 -0.0451902 -1.16146
lowerneck -16.2655 -4.11216 -9.41285
upperneck 7.6813 -4.91314 11.4304
head 5.49836 -1.91609 4.69834
rclavicle -7.7526e-015 1.43125e-014
rhumerus 8.5662 25.173 -90.4445
rradius 71.9886
rwrist 17.6751
rhand -26.8349 -31.2756
rfingers 7.12502
rthumb -0.260614 -61.2551
lclavicle -7.7526e-015 1.43125e-014
lhumerus 7.98129 -25.6555 99.4165
lradius 68.4864
lwrist 36.9393
lhand -6.95552 37.4547
lfingers 7.12502
lthumb 18.9136 66.5551
rfemur -11.3823 1.19119 34.1095
rtibia 26.971
rfoot -15.5515 -12.7181
rtoes 1.05175
lfemur -37.2043 2.50122 -7.21924
ltibia 27.7589
lfoot -6.81258 6.42745
ltoes -15.4884
250
root 20.5614 17.5766 4.44243 55.6763 -77.5298 -46.9155
lowerback 0.993162 0.0113941 4.23084
upperback 0.76986 0.0272122 1.1665
thorax 0.235205 0.0204605 -1.17452
lowerneck -16.2225 -4.13218 -9.39722
upperneck 7.65867 -4.94454 11.4247
head 5.48712 -1.93282 4.69065
rclavicle -9.54166e-015 4.77083e-015
rhumerus 7.49944 25.2772 -90.9461
rradius 72.2175
rwrist 16.4666
rhand -26.3902 -31.7768
rfingers 7.12502
rthumb 0.16889 -61.7565
lclavicle -9.54166e-015 4.77083e-015
lhumerus 6.49316 -25.6749 99.4701
lradius 69.1171
lwrist 37.1329
lhand -6.66876 37.3604
lfingers 7.12502
lthumb 19.1894 66.4337
rfemur -10.9763 1.14088 34.1853
rtibia 27.1417
rfoot -15.7927 -12.6132
rtoes 0.289371
lfemur -37.3701 2.43174 -7.04863
ltibia 26.4685
lfoot -6.61102 6.72031
ltoes -15.4298
251
root 20.397 17.5596 4.4626 56.5678 -77.6001 -47.711
lowerback 0.918861 0.115441 4.29065
upperback 0.773036 0.161402 1.18931
thorax 0.287239 0.0884512 -1.18535
lowerneck -16.1766 -4.15752 -9.38559
upperneck 7.63575 -4.9837 11.428
head 5.47654 -1.95296 4.68577
rclavicle 5.56597e-015 -1.11319e-014
rhumerus 6.44019 25.3558 -91.4529
rradius 72.4461
rwrist 15.163
rhand -25.9104 -32.3242
rfingers 7.12502
rthumb 0.632238 -62.3031
lclavicle 5.56597e-015 -1.11319e-014
lhumerus 4.99246 -25.6929 99.5285
lradius 69.7378
lwrist 37.2859
lhand -6.37939 37.2654
lfingers 7.12502
lthumb 19.4676 66.3108
rfemur -10.5888 1.08175 34.2418
rtibia 27.3534
rfoot -16.0132 -12.491
rtoes -0.501361
lfemur -37.5248 2.33103 -6.869
ltibia 25.2652
lfoot -6.3963 7.01038
ltoes -15.3662
252
root 20.2314 17.5421 4.48315 57.421 -77.6689 -48.4706
lowerback 0.848057 0.221642 4.33717
upperback 0.777606 0.298486 1.20853
thorax 0.339003 0.1579 -1.1921
lowerneck -16.1304 -4.18843 -9.38056
upperneck 7.61257 -5.03011 11.44
head 5.46706 -1.97629 4.68406
rclavicle 2.5842e-015 4.77083e-015
rhumerus 5.39028 25.4166 -91.9602
rradius 72.677
rwrist 13.7633
rhand -25.3954 -32.9202
rfingers 7.12502
rthumb 1.12967 -62.897
lclavicle 2.5842e-015 4.77083e-015
lhumerus 3.48035 -25.7064 99.5933
lradius 70.3502
lwrist 37.3972
lhand -6.08756 37.1702
lfingers 7.12502
lthumb 19.7482 66.187
rfemur -10.2221 1.01178 34.2802
rtibia 27.6085
rfoot -16.2115 -12.3523
rtoes -1.32262
lfemur -37.6709 2.20177 -6.68219
ltibia 24.1552
lfoot -6.16867 7.29512
ltoes -15.2957
253
root 20.0647 17.5245 4.50408 58.2291 -77.7331 -49.1874
lowerback 0.779976 0.330338 4.37272
upperback 0.783419 0.438929 1.22438
thorax 0.390754 0.229044 -1.19585
lowerneck -16.0806 -4.22624 -9.38283
upperneck 7.58802 -5.08579 11.462
head 5.4581 -2.00385 4.68588
rclavicle 4.96962e-015 -1.82882e-014
rhumerus 4.35002 25.4592 -92.4637
rradius 72.9111
rwrist 12.2678
rhand -24.8304 -33.5524
rfingers 7.12502
rthumb 1.67537 -63.5256
lclavicle 4.96962e-015 -1.82882e-014
lhumerus 1.95587 -25.7198 99.6662
lradius 70.956
lwrist 37.4703
lhand -5.79394 37.0761
lfingers 7.12502
lthumb 20.0304 66.0637
rfemur -9.87849 0.930706 34.3032
rtibia 27.9093
rfoot -16.3842 -12.1993
rtoes -2.16593
lfemur -37.8114 2.0467 -6.48884
ltibia 23.1473
lfoot -5.93549 7.56908
ltoes -15.2061
254
root 19.8969 17.5068 4.52539 58.9942 -77.7908 -49.8655
lowerback 0.715138 0.442164 4.40046
upperback 0.791567 0.583594 1.23739
thorax 0.443346 0.30234 -1.19781
lowerneck -16.0259 -4.2718 -9.39315
upperneck 7.55993 -5.1518 11.4951
head 5.44895 -2.03618 4.69159
rclavicle -1.13307e-014 1.11319e-014
rhumerus 3.31864 25.4838 -92.9608
rradius 73.1492
rwrist 10.6892
rhand -24.2247 -34.2428
rfingers 7.12502
rthumb 2.26034 -64.2106
lclavicle -1.13307e-014 1.11319e-014
lhumerus 0.421679 -25.7339 99.7481
lradius 71.5534
lwrist 37.5051
lhand -5.49188 36.9758
lfingers 7.12502
lthumb 20.3207 65.9327
rfemur -9.55709 0.836174 34.3134
rtibia 28.2557
rfoot -16.5284 -12.0296
rtoes -3.01571
lfemur -37.9457 1.87208 -6.29025
ltibia 22.2445
lfoot -5.69746 7.82812
ltoes -15.1109
255
root 19.7281 17.4892 4.54702 59.6997 -77.8389 -50.4884
lowerback 0.656197 0.55547 4.4217
upperback 0.801866 0.730464 1.24802
thorax 0.494975 0.376743 -1.19828
lowerneck -15.9712 -4.32578 -9.41155
upperneck 7.53106 -5.22875 11.5382
head 5.44134 -2.07346 4.70077
rclavicle 1.31198e-014 9.54166e-015
rhumerus 2.29783 25.4936 -93.4494
rradius 73.3895
rwrist 9.03584
rhand -23.5772 -34.983
rfingers 7.12502
rthumb 2.88572 -64.9432
lclavicle 1.31198e-014 9.54166e-015
lhumerus -1.11952 -25.746 99.8393
lradius 72.1349
lwrist 37.5037
lhand -5.18502 36.8699
lfingers 7.12502
lthumb 20.6156 65.7951
rfemur -9.26023 0.727098 34.3126
rtibia 28.6481
rfoot -16.6381 -11.8468
rtoes -3.86989
lfemur -38.0774 1.67894 -6.0889
ltibia 21.4536
lfoot -5.45635 8.06669
ltoes -15.0017
256
root 19.5581 17.4718 4.569 60.3411 -77.8794 -51.0534
lowerback 0.603975 0.671471 4.43487
upperback 0.814389 0.881225 1.25623
thorax 0.545287 0.453079 -1.19643
lowerneck -15.9121 -4.38869 -9.43987
upperneck 7.49927 -5.31731 11.5929
head 5.43405 -2.11616 4.71413
rclavicle 1.09332e-014 1.90833e-014
rhumerus 1.28567 25.4906 -93.9256
rradius 73.6326
rwrist 7.31347
rhand -22.8906 -35.7729
rfingers 7.12502
rthumb 3.54877 -65.7231
lclavicle 1.09332e-014 1.90833e-014
lhumerus -2.66751 -25.7523 99.9432
lradius 72.697
lwrist 37.462
lhand -4.87667 36.7688
lfingers 7.12502
lthumb 20.9119 65.6616
rfemur -8.98696 0.604498 34.2996
rtibia 29.0863
rfoot -16.7081 -11.6529
rtoes -4.72611
lfemur -38.2038 1.47258 -5.89069
ltibia 20.7751
lfoot -5.2138 8.27681
ltoes -14.8757
257
root 19.387 17.4547 4.59133 60.9018 -77.9132 -51.5434
lowerback 0.558243 0.789414 4.43875
upperback 0.829188 1.03491 1.2609
thorax 0.594367 0.530865 -1.19276
lowerneck -15.8497 -4.46077 -9.47601
upperneck 7.46563 -5.41804 11.6572
head 5.42763 -2.16455 4.73068
rclavicle 4.37326e-015 3.73715e-014
rhumerus 0.28475 25.4776 -94.3881
rradius 73.8745
rwrist 5.52725
rhand -22.1723 -36.6103
rfingers 7.12502
rthumb 4.24236 -66.5478
lclavicle 4.37326e-015 3.73715e-014
lhumerus -4.21805 -25.7481 100.059
lradius 73.2344
lwrist 37.386
lhand -4.56921 36.6775
lfingers 7.12502
lthumb 21.2073 65.5374
rfemur -8.73973 0.467586 34.2721
rtibia 29.57
rfoot -16.7314 -11.4489
rtoes -5.57719
lfemur -38.3275 1.25658 -5.70332
ltibia 20.2125
lfoot -4.97193 8.44968
ltoes -14.7266
258
root 19.2149 17.4381 4.61395 61.3734 -77.9421 -51.9502
lowerback 0.517611 0.910216 4.42985
upperback 0.847622 1.19261 1.26284
thorax 0.64431 0.610676 -1.18448
lowerneck -15.7826 -4.54301 -9.52193
upperneck 7.42752 -5.53183 11.7316
head 5.42122 -2.21918 4.75081
rclavicle 1.70955e-014 8.74653e-015
rhumerus -0.703231 25.4549 -94.8313
rradius 74.1144
rwrist 3.68406
rhand -21.4342 -37.4906
rfingers 7.12502
rthumb 4.9551 -67.4127
lclavicle 1.70955e-014 8.74653e-015
lhumerus -5.76862 -25.7312 100.188
lradius 73.746
lwrist 37.2827
lhand -4.26384 36.5923
lfingers 7.12502
lthumb 21.5006 65.4191
rfemur -8.51945 0.316923 34.2287
rtibia 30.0997
rfoot -16.7021 -11.2356
rtoes -6.41193
lfemur -38.449 1.03772 -5.53475
ltibia 19.7657
lfoot -4.729 8.57763
ltoes -14.5549
